<?xml version="1.0" encoding="UTF-8" standalone="no"?>
<svg xmlns="http://www.w3.org/2000/svg" width="512" height="512" viewBox="0 0 512 512">
  <rect width="512" height="512" fill="#4a6fa5" rx="100" ry="100"/>
  <g fill="#ffffff" transform="translate(80, 80) scale(0.7)">
    <path d="M400 32H48C21.5 32 0 53.5 0 80v352c0 26.5 21.5 48 48 48h352c26.5 0 48-21.5 48-48V80c0-26.5-21.5-48-48-48zm-32 252c0 6.6-5.4 12-12 12h-92v92c0 6.6-5.4 12-12 12h-56c-6.6 0-12-5.4-12-12v-92H92c-6.6 0-12-5.4-12-12v-56c0-6.6 5.4-12 12-12h92v-92c0-6.6 5.4-12 12-12h56c6.6 0 12 5.4 12 12v92h92c6.6 0 12 5.4 12 12v56z"/>
    <path d="M128 96h256v32H128z"/>
    <path d="M128 160h256v32H128z"/>
    <path d="M128 224h128v32H128z"/>
    <path d="M128 352h256v32H128z"/>
    <path d="M128 416h256v32H128z"/>
  </g>
</svg>
